<svg width="38" height="50" viewBox="0 0 38 50" fill="none" xmlns="http://www.w3.org/2000/svg">
<path d="M24.7811 0H0V24.9916H24.7811V0Z" fill="#1E3787"/>
<path d="M24.7811 25.0084H0V50H24.7811V25.0084Z" fill="#FFB900"/>
<path d="M24.7228 24.9916C17.8826 24.9916 12.3323 19.3941 12.3323 12.4958C12.3323 5.59752 17.8826 0 24.7228 0C31.563 0 37.1133 5.59752 37.1133 12.4958C37.1133 19.3941 31.563 24.9916 24.7228 24.9916Z" fill="#FFB900"/>
<path d="M24.7228 50C17.8826 50 12.3323 44.4025 12.3323 37.5042C12.3323 30.6059 17.8826 25.0084 24.7228 25.0084C31.563 25.0084 37.1133 30.6059 37.1133 37.5042C37.1133 44.4025 31.563 50 24.7228 50Z" fill="#FFB900"/>
<path d="M0 49.9749V25.0084C6.83185 25.0084 12.3739 30.5975 12.3739 37.4874V37.5042C12.3739 44.3941 6.83185 49.9749 0 49.9749Z" fill="#1E3787"/>
</svg>
